<?xml version="1.0" encoding="UTF-8" standalone="no"?>
<svg
   xmlns:dc="http://purl.org/dc/elements/1.1/"
   xmlns:cc="http://creativecommons.org/ns#"
   xmlns:rdf="http://www.w3.org/1999/02/22-rdf-syntax-ns#"
   xmlns:svg="http://www.w3.org/2000/svg"
   xmlns="http://www.w3.org/2000/svg"
   xmlns:xlink="http://www.w3.org/1999/xlink"
   xmlns:sodipodi="http://sodipodi.sourceforge.net/DTD/sodipodi-0.dtd"
   xmlns:inkscape="http://www.inkscape.org/namespaces/inkscape"
   width="64px"
   height="64px"
   id="svg3140"
   sodipodi:version="0.32"
   inkscape:version="1.0 (4035a4fb49, 2020-05-01)"
   sodipodi:docname="DynFreeCAD.svg"
   inkscape:output_extension="org.inkscape.output.svg.inkscape"
   version="1.1"
   inkscape:export-filename="/home/alex/Documents/code/FreeCAD/src/Gui/Icons/freecad-icon-64.png"
   inkscape:export-xdpi="90"
   inkscape:export-ydpi="90">
  <defs
     id="defs3142">
    <linearGradient
       id="linearGradient3864">
      <stop
         id="stop3866"
         offset="0"
         style="stop-color:#71b2f8;stop-opacity:1;" />
      <stop
         id="stop3868"
         offset="1"
         style="stop-color:#002795;stop-opacity:1;" />
    </linearGradient>
    <linearGradient
       id="linearGradient3682">
      <stop
         style="stop-color:#ff6d0f;stop-opacity:1;"
         offset="0"
         id="stop3684" />
      <stop
         style="stop-color:#ff1000;stop-opacity:1;"
         offset="1"
         id="stop3686" />
    </linearGradient>
    <inkscape:perspective
       sodipodi:type="inkscape:persp3d"
       inkscape:vp_x="0 : 32 : 1"
       inkscape:vp_y="0 : 1000 : 0"
       inkscape:vp_z="64 : 32 : 1"
       inkscape:persp3d-origin="32 : 21.333333 : 1"
       id="perspective3148" />
    <linearGradient
       id="linearGradient3864-9">
      <stop
         style="stop-color:#204a87;stop-opacity:1"
         offset="0"
         id="stop3866-1" />
      <stop
         style="stop-color:#729fcf;stop-opacity:1"
         offset="1"
         id="stop3868-1" />
    </linearGradient>
    <linearGradient
       id="linearGradient3682-0">
      <stop
         id="stop3684-0"
         offset="0"
         style="stop-color:#a40000;stop-opacity:1" />
      <stop
         id="stop3686-0"
         offset="1"
         style="stop-color:#ef2929;stop-opacity:1" />
    </linearGradient>
    <inkscape:perspective
       id="perspective3148-5"
       inkscape:persp3d-origin="32 : 21.333333 : 1"
       inkscape:vp_z="64 : 32 : 1"
       inkscape:vp_y="0 : 1000 : 0"
       inkscape:vp_x="0 : 32 : 1"
       sodipodi:type="inkscape:persp3d" />
    <radialGradient
       r="19.571428"
       fy="33.899986"
       fx="270.58316"
       cy="33.899986"
       cx="270.58316"
       gradientTransform="matrix(1.2361257,0.30001695,-0.83232803,3.3883821,-499.9452,-167.33108)"
       gradientUnits="userSpaceOnUse"
       id="radialGradient3817-5-3"
       xlink:href="#linearGradient3682-0-6"
       inkscape:collect="always" />
    <linearGradient
       id="linearGradient3682-0-6">
      <stop
         id="stop3684-0-7"
         offset="0"
         style="stop-color:#ff390f;stop-opacity:1" />
      <stop
         id="stop3686-0-5"
         offset="1"
         style="stop-color:#ff1000;stop-opacity:1;" />
    </linearGradient>
    <linearGradient
       id="linearGradient3864-9-6">
      <stop
         style="stop-color:#204a87;stop-opacity:1"
         offset="0"
         id="stop3866-1-2" />
      <stop
         style="stop-color:#729fcf;stop-opacity:1"
         offset="1"
         id="stop3868-1-9" />
    </linearGradient>
    <linearGradient
       inkscape:collect="always"
       xlink:href="#linearGradient3864-9-7"
       id="linearGradient3808-2"
       x1="-146.74467"
       y1="58.261547"
       x2="-157.32494"
       y2="26.520763"
       gradientUnits="userSpaceOnUse"
       gradientTransform="matrix(1.0094494,0,0,1.0094493,-20.307973,3.7260081)" />
    <linearGradient
       id="linearGradient3864-9-7">
      <stop
         style="stop-color:#204a87;stop-opacity:1"
         offset="0"
         id="stop3866-1-0" />
      <stop
         style="stop-color:#729fcf;stop-opacity:1"
         offset="1"
         id="stop3868-1-93" />
    </linearGradient>
  </defs>
  <sodipodi:namedview
     id="base"
     pagecolor="#ffffff"
     bordercolor="#666666"
     borderopacity="1.0"
     inkscape:pageopacity="0.0"
     inkscape:pageshadow="2"
     inkscape:zoom="7.9999999"
     inkscape:cx="22.494102"
     inkscape:cy="35.79223"
     inkscape:current-layer="layer3"
     showgrid="false"
     inkscape:document-units="px"
     inkscape:grid-bbox="true"
     inkscape:window-width="1600"
     inkscape:window-height="837"
     inkscape:window-x="0"
     inkscape:window-y="27"
     inkscape:window-maximized="1"
     inkscape:snap-nodes="true"
     inkscape:snap-bbox="true"
     inkscape:document-rotation="0"
     inkscape:snap-grids="false"
     inkscape:snap-to-guides="false"
     inkscape:bbox-nodes="false"
     inkscape:bbox-paths="false"
     inkscape:snap-bbox-edge-midpoints="true"
     inkscape:snap-bbox-midpoints="true"
     inkscape:object-paths="true"
     inkscape:snap-intersection-paths="true"
     inkscape:snap-smooth-nodes="true"
     inkscape:snap-midpoints="false"
     inkscape:snap-object-midpoints="true">
    <inkscape:grid
       type="xygrid"
       id="grid3002"
       empspacing="2"
       visible="true"
       enabled="true"
       snapvisiblegridlinesonly="true" />
  </sodipodi:namedview>
  <metadata
     id="metadata3145">
    <rdf:RDF>
      <cc:Work
         rdf:about="">
        <dc:format>image/svg+xml</dc:format>
        <dc:type
           rdf:resource="http://purl.org/dc/dcmitype/StillImage" />
        <dc:title />
      </cc:Work>
    </rdf:RDF>
  </metadata>
  <g
     inkscape:groupmode="layer"
     id="layer3"
     inkscape:label="Dynfreecad logo"
     style="display:inline;opacity:1">
    <path
       id="top_op-1"
       style="display:inline;opacity:1;fill:#ef2929;fill-opacity:1;stroke:none;stroke-width:0.788224"
       d="M 8.9726562,1.800781 A 7.1999998,7.1999998 0 0 0 1.8007812,8.9999998 7.1999998,7.1999998 0 0 0 9,16.199219 a 7.1999998,7.1999998 0 0 0 0.027344,0 H 29 A 7.1999998,7.1999998 0 0 0 36.199219,8.9999998 7.1999998,7.1999998 0 0 0 29,1.800781 H 28.972656 9 a 7.1999998,7.1999998 0 0 0 -0.027344,0 z M 9,6.1992186 A 2.8,2.8 0 0 1 11.800781,8.9999998 2.8,2.8 0 0 1 9,11.800781 2.8,2.8 0 0 1 6.1992188,8.9999998 2.8,2.8 0 0 1 9,6.1992186 Z m 19.962891,0 a 2.8,2.8 0 0 1 0.03711,0 2.8,2.8 0 0 1 2.80078,2.8007812 A 2.8,2.8 0 0 1 29,11.800781 2.8,2.8 0 0 1 26.199219,8.9999998 2.8,2.8 0 0 1 28.962891,6.1992186 Z" />
    <path
       id="middle_op-9"
       style="display:inline;opacity:1;fill:#ef2929;fill-opacity:1"
       d="M 8.9726562,23.800781 A 7.1999998,7.1999998 0 0 0 1.8007812,31 7.1999998,7.1999998 0 0 0 9,38.199219 H 9.027344 22 A 7.1999998,7.1999998 0 0 0 29.199219,31 7.1999998,7.1999998 0 0 0 22,23.800781 H 9 a 7.1999998,7.1999998 0 0 0 -0.027344,0 z m -0.00977,4.398438 a 2.8,2.8 0 0 1 0.037114,0 A 2.8,2.8 0 0 1 11.800781,31 2.8,2.8 0 0 1 9.0000002,33.800781 2.8,2.8 0 0 1 6.199219,31 2.8,2.8 0 0 1 8.9628908,28.199219 Z M 22,28.199219 A 2.8,2.8 0 0 1 24.800781,31 2.8,2.8 0 0 1 22,33.800781 2.8,2.8 0 0 1 19.199219,31 2.8,2.8 0 0 1 22,28.199219 Z" />
    <path
       id="vertical_op-9"
       style="display:inline;opacity:1;fill:#a60101;fill-opacity:1;stroke:none;stroke-width:0.788224"
       d="m 8.9726562,1.800781 a 7.1999998,7.1999998 0 0 0 -7.171875,7.1992188 7.1999998,7.1999998 0 0 0 0,0.027344 V 54.800781 A 7.1999998,7.1999998 0 0 0 9,62 a 7.1999998,7.1999998 0 0 0 7.199219,-7.199219 7.1999998,7.1999998 0 0 0 0,-0.0293 V 8.9999998 A 7.1999998,7.1999998 0 0 0 9,1.800781 a 7.1999998,7.1999998 0 0 0 -0.027344,0 z M 9,6.1992186 A 2.8,2.8 0 0 1 11.800781,8.9999998 2.8,2.8 0 0 1 9,11.800781 2.8,2.8 0 0 1 6.1992188,8.9999998 2.8,2.8 0 0 1 9,6.1992186 Z M 8.9628906,28.199219 a 2.8,2.8 0 0 1 0.037109,0 A 2.8,2.8 0 0 1 11.800781,31 2.8,2.8 0 0 1 8.9999996,33.800781 2.8,2.8 0 0 1 6.1992184,31 2.8,2.8 0 0 1 8.9628906,28.199219 Z m 0,23.800781 a 2.8,2.8 0 0 1 0.037109,0 2.8,2.8 0 0 1 2.8007814,2.800781 A 2.8,2.8 0 0 1 8.9999996,57.599609 2.8,2.8 0 0 1 6.1992184,54.800781 2.8,2.8 0 0 1 8.9628906,52 Z" />
    <path
       d="M 39.875,21.5 A 18.5,18.5 0 0 0 27.501953,26.361328 C 28.559266,27.614348 29.199027,29.232177 29.199219,31 29.198788,34.97584 25.97584,38.198788 22,38.199219 H 21.587891 A 18.5,18.5 0 0 0 21.5,40 18.5,18.5 0 0 0 40,58.5 18.5,18.5 0 0 0 58.5,40 18.5,18.5 0 0 0 40,21.5 a 18.5,18.5 0 0 0 -0.125,0 z m 0.09766,11.300781 a 7.1999998,7.1999998 0 0 1 0.02734,0 A 7.1999998,7.1999998 0 0 1 47.199219,40 7.1999998,7.1999998 0 0 1 40,47.199219 7.1999998,7.1999998 0 0 1 32.800781,40 7.1999998,7.1999998 0 0 1 39.972656,32.800781 Z"
       style="display:inline;fill:#729fcf;fill-opacity:1;stroke:none;stroke-width:4.37746"
       id="cogwheel" />
    <path
       d="M 8.9726562,1.8007812 A 7.1999998,7.1999998 0 0 0 1.8007812,9 a 7.1999998,7.1999998 0 0 0 0,0.027344 V 54.800781 A 7.1999998,7.1999998 0 0 0 9,62 a 7.1999998,7.1999998 0 0 0 7.199219,-7.199219 7.1999998,7.1999998 0 0 0 0,-0.0293 V 9 A 7.1999998,7.1999998 0 0 0 9,1.8007812 a 7.1999998,7.1999998 0 0 0 -0.027344,0 z M 9,6.1992188 A 2.8,2.8 0 0 1 11.800781,9 2.8,2.8 0 0 1 9,11.800781 2.8,2.8 0 0 1 6.1992188,9 2.8,2.8 0 0 1 9,6.1992188 Z M 8.9628906,28.199219 A 2.8,2.8 0 0 1 9,28.199219 2.8,2.8 0 0 1 11.800781,31 2.8,2.8 0 0 1 9,33.800781 2.8,2.8 0 0 1 6.1992188,31 2.8,2.8 0 0 1 8.9628906,28.199219 Z m 0,23.800781 A 2.8,2.8 0 0 1 9,52 2.8,2.8 0 0 1 11.800781,54.800781 2.8,2.8 0 0 1 9,57.599609 2.8,2.8 0 0 1 6.1992188,54.800781 2.8,2.8 0 0 1 8.9628906,52 Z"
       style="display:inline;opacity:0.5;fill:#a60101;fill-opacity:1;stroke:none;stroke-width:0.788224"
       id="vertical_op" />
    <path
       d="M 8.9726562,1.8007812 A 7.1999998,7.1999998 0 0 0 1.8007812,9 7.1999998,7.1999998 0 0 0 9,16.199219 a 7.1999998,7.1999998 0 0 0 0.027344,0 H 29 A 7.1999998,7.1999998 0 0 0 36.199219,9 7.1999998,7.1999998 0 0 0 29,1.8007812 H 28.972656 9 a 7.1999998,7.1999998 0 0 0 -0.027344,0 z M 9,6.1992188 A 2.8,2.8 0 0 1 11.800781,9 2.8,2.8 0 0 1 9,11.800781 2.8,2.8 0 0 1 6.1992188,9 2.8,2.8 0 0 1 9,6.1992188 Z m 19.962891,0 a 2.8,2.8 0 0 1 0.03711,0 A 2.8,2.8 0 0 1 31.800781,9 2.8,2.8 0 0 1 29,11.800781 2.8,2.8 0 0 1 26.199219,9 2.8,2.8 0 0 1 28.962891,6.1992188 Z"
       style="display:inline;opacity:0.5;fill:#ef2929;fill-opacity:1;stroke:none;stroke-width:0.788224"
       id="top_op" />
    <path
       d="M 8.9726562,23.800781 A 7.1999998,7.1999998 0 0 0 1.8007812,31 7.1999998,7.1999998 0 0 0 9,38.199219 H 9.0273438 22 A 7.1999998,7.1999998 0 0 0 29.199219,31 7.1999998,7.1999998 0 0 0 22,23.800781 H 9 a 7.1999998,7.1999998 0 0 0 -0.027344,0 z m -0.00977,4.398438 A 2.8,2.8 0 0 1 9,28.199219 2.8,2.8 0 0 1 11.800781,31 2.8,2.8 0 0 1 9,33.800781 2.8,2.8 0 0 1 6.1992188,31 2.8,2.8 0 0 1 8.9628906,28.199219 Z M 22,28.199219 A 2.8,2.8 0 0 1 24.800781,31 2.8,2.8 0 0 1 22,33.800781 2.8,2.8 0 0 1 19.199219,31 2.8,2.8 0 0 1 22,28.199219 Z"
       style="fill:#ef2929;fill-opacity:1;opacity:0.5"
       id="middle_op" />
  </g>
</svg>
